
<svg xmlns="http://www.w3.org/2000/svg" viewBox="0 0 300 620" font-family="IBM Plex Sans, sans-serif">
  <defs>
    <linearGradient id="bezel" x1="0" y1="0" x2="0" y2="1">
      <stop offset="0" stop-color="#1a1f28"/>
      <stop offset="1" stop-color="#0b0f16"/>
    </linearGradient>
  </defs>
  <rect x="0" y="0" width="300" height="620" rx="34" ry="34" fill="url(#bezel)"/>
  <rect x="8" y="8" width="284" height="604" rx="28" ry="28" fill="#ffffff"/>
  <rect x="105.0" y="10" width="90" height="18" rx="9" fill="#0b0f16"/>
<text x="24" y="40" font-size="11" fill="#3b4453" font-weight="600">9:41</text><text x="276" y="40" text-anchor="end" font-size="11" fill="#3b4453">UPI</text><rect x="24" y="54" width="120" height="20" rx="10" fill="#a05a00"/><text x="84" y="68" text-anchor="middle" font-size="10.5" fill="#ffffff" font-weight="700">PLEASE CHECK</text>
  <text x="24" y="112" font-size="20" font-weight="800" fill="#0d1420">A remote-access app</text>
  <text x="24" y="136" font-size="20" font-weight="800" fill="#0d1420">is on your phone.</text>
  <text x="24" y="170" font-size="12" fill="#5a6473">If you were told to install it for</text>
  <text x="24" y="187" font-size="12" fill="#5a6473">KYC or a refund, the caller can see</text>
  <text x="24" y="204" font-size="12" fill="#5a6473">everything you type.</text>

  <!-- payment card -->
  <rect x="20" y="228" width="260" height="66" rx="12" fill="#f6f7f9" stroke="#e4e7ec"/>
  <text x="34" y="252" font-size="14" font-weight="700" fill="#0d1420">Pay ₹15,000</text>
  <text x="34" y="272" font-size="11" fill="#5a6473">to jyoti-kyc@axl (first-time payee)</text>

  <!-- safety questions -->
  <text x="24" y="322" font-size="10" fill="#5a6473" letter-spacing="1">TWO QUICK QUESTIONS</text>
  <rect x="20" y="336" width="260" height="60" rx="10" fill="#ffffff" stroke="#e4e7ec"/>
  <text x="34" y="357" font-size="12" font-weight="700" fill="#0d1420">Did anyone ask you to install</text>
  <text x="34" y="374" font-size="12" font-weight="700" fill="#0d1420">this app just now?</text>
  <circle cx="240" cy="370" r="8" fill="#eef1f5"/>
  <text x="248" y="373" font-size="11" fill="#5a6473">Yes / No</text>

  <rect x="20" y="406" width="260" height="60" rx="10" fill="#ffffff" stroke="#e4e7ec"/>
  <text x="34" y="427" font-size="12" font-weight="700" fill="#0d1420">Do you know jyoti-kyc@axl</text>
  <text x="34" y="444" font-size="12" font-weight="700" fill="#0d1420">personally?</text>
  <circle cx="240" cy="440" r="8" fill="#eef1f5"/>
  <text x="248" y="443" font-size="11" fill="#5a6473">Yes / No</text>

  <rect x="20" y="486" width="260" height="42" rx="10" fill="#0d1420"/>
  <text x="150" y="512" text-anchor="middle" font-size="12.5" font-weight="700"
        fill="#ffffff">Continue only if you're sure</text>

  <text x="24" y="552" font-size="9.5" fill="#8a94a3">Receipt · c48a10bf62d18a11</text>
  <rect x="100.0" y="598" width="100" height="4" rx="2" fill="#0b0f16"/>
</svg>